<svg xmlns="http://www.w3.org/2000/svg" viewBox="0 0 250 25.35" aria-labelledby="logoTitleID logoDescID"><path d="M228.304.001v4.258h8.63v18.124h4.445V4.259H250V.001h-21.696zM12.206 17.581H7.338V4.8h4.868c4.2 0 6.615 2.662 6.615 6.409 0 3.779-2.237 6.371-6.615 6.371M12.132 0H0v2.4h2.4v17.583H0v2.4h12.132c7.334 0 11.706-4.71 11.706-11.135C23.838 4.791 19.275 0 12.132 0m69.126 15.16L73.962.001h-4.9L81.269 25.35 93.49.001h-4.942l-7.29 15.159zM106.892.001h4.448v22.382h-4.448zm26.598 12.666 3-6.09 3.051 6.09zM138.157 0h-3.337l-10.943 22.383h4.862l2.7-5.512h10.136l2.785 5.512h4.861zm27.721.001h-4.447v22.382h17.818v-4.256h-13.371V.001zM37.644 22.383h18.002v-4.255H42.088v-4.806h12.16V9.068h-12.16V4.259h13.075V0H37.644v22.383zm157.224.001h18.002v-4.256h-13.558v-4.806h12.16V9.068h-12.16V4.26h13.075V0h-17.519v22.384z"/></svg>