<svg xmlns="http://www.w3.org/2000/svg" xmlns:xlink="http://www.w3.org/1999/xlink" viewBox="0 0 1560 20"><style>.U{fill:#ff4b55}.V{fill:#f5f5f5}.W{fill:#41479b}.X{fill:#ffe15a}.Y{fill:#73af00}.Z{fill:#d2aa73}.a{fill:#464655}.b{fill:#ffda44}</style><path d="M60 20H30V0h30v20z" class="W"/><path d="M44.5 0h-.9l-4.8 3.2V0h-2.6v3.2L31.4 0H30v.9l4.1 2.7H30v2.6h4.1L30 9.1v.9h1.4l4.8-3.2V10h2.6V6.8l4.8 3.2H45v-.9l-4.1-2.7H45V3.7h-4.1L45 .9V0h-.5z" class="V"/><path d="M45 4.2h-6.7V0h-1.6v4.2H30v1.6h6.7V10h1.6V5.8H45zm-9.3-.5L30.3.1l-.2-.1H30v.5l4.7 3.1h1zm3.6 0h1L45 .6V0h-.1l-.2.1-5.4 3.6zm-3.6 2.6h-1L30 9.4v.6h.1l.1-.1 5.5-3.6zm3.6 0 5.4 3.6.2.1h.1v-.6l-4.7-3.1h-1z" class="U"/><path d="m37.6 12.8.5 1.4 1.3-.4-.7 1.2 1.2.8-1.4.3.1 1.4-1-1-1.1 1 .1-1.4-1.4-.3 1.2-.8-.7-1.2 1.3.4zm11.1-4.3.3.6.7-.2-.4.7.6.4-.7.1v.7l-.5-.5-.5.5v-.7l-.7-.1.6-.4-.3-.7.7.2zm4.3-5 .2.7.7-.2-.3.6.6.4-.7.1v.8l-.5-.5-.5.5v-.8l-.7-.1.6-.4L52 4l.7.2zm4 2.8.3.7.7-.2-.4.6.6.4-.7.1v.8l-.5-.5-.5.5v-.8l-.7-.1.6-.4-.3-.6.7.2zm-4 8.5.2.6.7-.2-.3.7.6.4-.7.1v.7l-.5-.5-.5.5v-.7l-.7-.1.6-.4-.4-.7.7.2zm1.6-5.2.2.5.4-.2-.2.5.3.2-.4.1v.5l-.3-.4-.4.4.1-.5-.5-.1.4-.2-.2-.5.4.2z" class="V"/><path d="M70 20H60V0h10v20z" class="a"/><path d="M90 20H80V0h10v20z" class="U"/><path d="M80 20H70V0h10v20z" class="X"/><path d="M113 20H97V0h16v20zM100.4 0z" class="V"/><path d="M97 0h-7v20h7V0zm23 0h-7v20h7V0zm-11.9 12.4 3.1-1.8-.7-.4c-.2-.1-.3-.3-.3-.6l.2-1.8-1.3.4c-.3.1-.6-.1-.6-.4l-.1-.6-1.2 1.5c-.1.1-.3.1-.4 0s-.1-.1-.1-.2l.5-3.1-.8.2c-.2.1-.5 0-.6-.3l-.8-1.5-.8 1.6c-.1.2-.4.3-.6.3l-.8-.2.5 3.1c0 .1-.1.3-.2.3s-.2 0-.3-.1l-1.2-1.5-.1.6c-.1.3-.3.5-.6.4l-1.3-.4.2 1.8c0 .2-.1.4-.3.6l-.7.4 3.1 1.8c.3.2.5.6.3.9l-.3.7 2.6-.2c.1 0 .3.1.3.2l-.1 2.9h.5l-.1-2.9c0-.1.1-.3.2-.3l2.6.2-.3-.7c.1-.3.2-.7.5-.9zM145 20h-20V0h20v20z" class="U"/><path d="M141.4 7.9h-4.2V3.7H133v4.2h-4.2v4.2h4.2v4.2h4.2v-4.2h4.2V7.9z" class="V"/><path d="M180 20h-30V0h30v20z" class="U"/><path d="m154.8 3 .8 1.6 1.6.3-1.2 1.3.3 1.8-1.5-.8-1.5.8.3-1.8-1.3-1.3 1.7-.3zm4.6-1.5.2.7.7.1-.6.5.1.7-.6-.4-.6.2.2-.6-.4-.6h.7zm1.2 2 .5.5.7-.1-.4.6.4.7-.7-.1-.5.5-.1-.7-.6-.4.6-.3zm.1 2.5.3.7h.7l-.4.6.2.7-.7-.3-.6.4.1-.7-.5-.5.6-.2zm-1.1 1.9v.7l.7.4-.7.3-.1.7-.5-.5-.6.1.3-.6-.3-.7.7.1z" class="X"/><path d="M210 6.7h-30V0h30v6.7z" class="a"/><path d="M210 20h-30v-6.7h30V20z" class="X"/><path d="M210 13.3h-30V6.7h30v6.6zm30 6.7h-30V0h30v20z" class="U"/><path d="M240 8.5h-17.6V0h-3.1v8.5H210v3.2h9.3V20h3.1v-8.3H240z" class="V"/><path d="M250 20h-10V0h10v20z" class="W"/><path d="M270 20h-10V0h10v20z" class="U"/><path d="M260 20h-10V0h10v20z" class="V"/><path d="M300 20h-30V0h30v20z" class="U"/><g class="V"><path d="M283.2 10.8c-.8 0-1.5-.3-2-.9v-.2h.2c.7.8 1.9 1.1 2.9.6-.3 0-.6 0-.8-.2-.9-.6-.5-1.3-1.1-2-.4-.6-1.3-.9-2-.6-.5.1-1.1-.2-1.2-.8v-.1s0-.1-.1-.1c0 0-.1 0-.1.1-1 2.9 2.1 6.5 5.3 3.9-.4.2-.7.3-1.1.3zm-2.4-1h-.1l-.1-.4h-.4v-.2l.3-.2-.1-.4s0-.1.1-.1l.3.2.3-.2h.1l-.1.4.3.3v.1h-.4l-.2.5zm4.7-.9a2.47 2.47 0 0 1 2.2-.5c.1 0 .1.1.1.1 0 .1-.1.1-.1.1-1.1-.2-2.2.3-2.7 1.3.2-.2.5-.3.8-.4 1.1-.1 1.1.7 2.1 1s1.4-.1 2-.7a1.07 1.07 0 0 1 1.4-.1h.1v-.1c-.9-3-5.5-3.9-6.5.1 0-.3.3-.6.6-.8zm2.4-.7c0-.1.1-.1 0 0l.4.2.3-.2h.1v.1l-.1.4.3.3v.1h-.4l-.1.4s0 .1-.1.1v-.1l-.2-.5h-.4v-.2l.3-.2-.1-.4zm-4.2.9c-.3-.7-.3-1.6.1-2.3 0-.1.1-.1.2-.1.1.1.1.1 0 .2a2.59 2.59 0 0 0 .5 3c-.1-.3-.2-.5-.2-.8.2-1.1 1-1 1.4-1.8.4-.7.3-1.5-.2-2.1a1.08 1.08 0 0 1 .2-1.4s.1 0 .1-.1v-.1c-3 .1-5 4.5-1.5 6.5-.2-.2-.4-.6-.6-1zm0-2.6v-.1l.3-.3-.1-.4v-.1h.1l.3.2.3-.3s.1 0 .1.1l-.1.4.3.2v.1h-.4l-.1.4s0 .1-.1.1v-.1l-.1-.4-.5.2zm2.4 4c.7.5 1.1 1.2 1.1 2 0 .1 0 .1-.1.1s-.1 0-.1-.1c-.1-1.1-.9-2-2-2.2.2.1.4.4.6.6.4 1-.3 1.3-.2 2.3s.5 1.3 1.3 1.7c.5.2.8.8.5 1.3v.2h.1c2.5-1.8 1.9-6.5-2.2-6.3.3.1.7.2 1 .4zm1.4 2.2c.1 0 .1.1 0 0v.5l.3.2v.1h-.4l-.1.4v.1s-.1 0-.1-.1l-.1-.4h-.4v-.1l.3-.2-.1-.4v-.1h.1l.3.2.2-.2z"/><path d="M284.7 11.7c-.2.8-.7 1.4-1.5 1.7-.1 0-.1 0-.2-.1 0-.1 0-.1.1-.2 1-.5 1.6-1.6 1.5-2.7-.1.3-.2.5-.4.8-.8.7-1.3.1-2.2.5s-1 .9-1.2 1.8c0 .6-.5 1-1.1.9h-.1v.1c1.5 1.2 3.6.9 4.8-.6.8-1 1-2.3.4-3.5.1.5.1.9-.1 1.3zm-1.6 2v.1h-.4l-.1.4h-.1l-.1-.4h-.4v-.1l.3-.2-.1-.4V13l.3.2.3-.2h.1l-.1.4.3.3z"/></g><path d="M330 6.7h-30V0h30v6.7z" class="U"/><path d="M330 20h-30v-6.7h30V20z" fill="#82afff"/><path d="M330 13.3h-30V6.7h30v6.6z" class="V"/><path d="M360 20h-30V0h30v20z" class="U"/><path d="M360 7.3h-16.5V0h-5.2v7.3H330v5.3h8.3V20h5.2v-7.4H360z" class="V"/><path d="M360 8.4h-17.6V0h-3.1v8.4H330v3.2h9.3V20h3.1v-8.4H360zM390 20h-30V0h30v20z" class="W"/><path d="M374.5 0h-.9l-4.8 3.2V0h-2.6v3.2L361.4 0H360v.9l4.1 2.7H360v2.6h4.1L360 9.1v.9h1.4l4.8-3.2V10h2.6V6.8l4.8 3.2h1.4v-.9l-4.1-2.7h4.1V3.7h-4.1L375 1V0h-.5z" class="V"/><path d="M375 4.2h-6.7V0h-1.6v4.2H360v1.6h6.7V10h1.6V5.8h6.7zm-9.3-.5L360.3.1l-.2-.1h-.1v.5l4.7 3.1h1zm3.6 0h1L375 .6V0h-.1l-.1.1-5.5 3.6zm-3.6 2.6h-1L360 9.4v.6h.1l.1-.1 5.5-3.6zm3.6 0 5.4 3.6.1.1h.1v-.6l-4.7-3.1h-.9z" class="U"/><path d="m382.5 5.8.4.9.9.1-.6.7.1 1-.8-.5-.8.5.2-1-.7-.7.9-.1z" class="V"/><path d="m382.5 6.2.3.6.6.1-.4.5.1.7-.6-.3-.6.3.1-.7-.4-.5.6-.1z" class="U"/><path d="m386.1 8.5.4.9.9.1-.6.7.1.9-.8-.4-.8.4.2-.9-.7-.7.9-.1z" class="V"/><path d="m386.1 8.9.3.6.6.1-.4.5.1.7-.6-.4-.5.4.1-.7-.5-.5.7-.1z" class="U"/><path d="m382.5 14.4.4.8.9.2-.6.7.1.9-.8-.4-.8.4.2-.9-.7-.7.9-.2z" class="V"/><path d="m382.5 14.8.3.6.6.1-.4.5.1.7-.6-.4-.6.4.1-.7-.4-.5.6-.1z" class="U"/><path d="m378.9 9.5.4.9.9.2-.7.6.2 1-.8-.5-.8.5.1-1-.6-.6.9-.2z" class="V"/><path d="m378.9 9.9.3.7.6.1-.4.4.1.7-.6-.3-.6.3.1-.7-.4-.4.6-.1z" class="U"/><path d="M420 20h-30V0h30v20z" fill="#4173cd"/><path d="M420 8.4h-17.6V0h-3.1v8.4H390v3.2h9.3V20h3.1v-8.5l17.6.1z" class="X"/><path d="M450 10h-30V0h30v10z" class="U"/><path d="M420 10h30v10h-30V10zm4.3-5c0-1.7 1.2-3.2 2.9-3.5 0 0 .1 0 .1-.1 0 0 0-.1-.1-.1-1-.2-2 0-2.9.6-.5.3-.9.7-1.1 1.2-1 1.8-.3 4.1 1.5 5.1.5.3 1.1.4 1.7.4.3 0 .5 0 .8-.1 0 0 .1 0 .1-.1 0 0 0-.1-.1-.1-1.7-.1-3-1.6-2.9-3.3zm4.1-2.9.3.5.5.1-.4.4.1.6-.5-.3-.4.3.1-.6-.4-.4.5-.1zm-1.9 1.4.3.6.5.1-.4.4.1.5-.5-.3-.4.3v-.5l-.3-.4.5-.1zm3.8 0 .3.6.5.1-.4.4.1.5-.5-.3-.4.3.1-.5-.4-.4.5-.1zm-3.1 2.4.3.5.5.1-.4.4.1.5-.5-.2-.4.2.1-.5-.4-.4.5-.1zm2.4 0 .3.5.5.1-.4.4.1.5-.5-.2-.5.2.1-.5-.3-.4.5-.1z" class="V"/><path d="M480 20h-30V0h30v20z" class="U"/><path d="M450 0h15v10h-15V0z" class="W"/><g class="V"><path d="M455.7 5c0-.5.2-1 .5-1.3l-1.5-.5c-.1 0-.1 0-.1.1v.1l1.2 1.2-1.6.4s-.1 0-.1.1c0 0 0 .1.1.1l1.6.4-1.2 1.2v.1h.1l1.5-.5c-.3-.4-.5-.9-.5-1.4z"/><path d="M456.2 3.7c.7-.7 1.8-.8 2.6-.1l.1.1.4-1.6s0-.1-.1-.1h-.1L458 3.2l-.4-1.6s0-.1-.1-.1c0 0-.1 0-.1.1l-.4 1.6-1.1-1.2h-.1v.1l.4 1.6zm2.6 2.7c-.7.7-1.8.8-2.6.1l-.1-.1-.3 1.6s0 .1.1.1h.1l1.1-1.2.4 1.6s0 .1.1.1c0 0 .1 0 .1-.1l.4-1.6 1.1 1.2h.1V8l-.5-1.6zm2.1-1.4-1.6-.4 1.2-1.2v-.1h-.1l-1.5.5c.7.7.7 1.9 0 2.7l1.5.5c.1 0 .1 0 .1-.1v-.1l-1.2-1.2 1.6-.4V5z"/><path d="M457.5 3.5A1.54 1.54 0 0 1 459 5a1.54 1.54 0 0 1-1.5 1.5A1.54 1.54 0 0 1 456 5a1.54 1.54 0 0 1 1.5-1.5z"/></g><path d="M510 20h-30V0h30v20z" class="W"/><g class="X"><path d="m495.1 2.1.3.7.7.1-.5.5.2.8-.7-.4-.6.4.1-.8-.5-.5.7-.1z"/><use xlink:href="#B"/><use xlink:href="#B" x="-2.4" y="2.5"/><path d="m488.5 9 .3.6.7.2-.5.5.1.7-.6-.3-.6.3.1-.7-.5-.5.6-.2zm1 3.3.3.6.7.1-.5.6.1.7-.6-.4-.6.4.1-.7-.5-.6.7-.1zm2.4 2.5.3.6.7.1-.5.6.1.7-.6-.3-.6.3.1-.7-.5-.6.7-.1zm3.2 1 .3.7.7.1-.5.5.2.8-.7-.4-.6.4.1-.8-.5-.5.7-.1zm3.5-1 .3.6.7.1-.5.6.1.7-.6-.3-.6.3.1-.7-.5-.6.7-.1zm2.4-2.5.3.6.7.1-.5.6.1.7-.6-.4-.6.4.1-.7-.5-.6.7-.1zm.8-3.3.3.6.7.2-.5.5.1.7-.6-.3-.6.3.1-.7-.5-.5.7-.2z"/><use xlink:href="#B" x="9.1" y="2.5"/><use xlink:href="#B" x="6.7"/></g><path d="M540 20h-30V0h30v20z" class="W"/><path d="M539 0h-1.8l-9.6 6.4V0h-5.2v6.4L512.8 0H510v1.9l8.2 5.5H510v5.3h8.2l-8.2 5.5V20h2.8l9.6-6.4V20h5.2v-6.4l9.6 6.4h2.8v-1.9l-8.2-5.5h8.2V7.4h-8.2l8.2-5.5V0h-1z" class="V"/><path d="M540 8.4h-13.5V0h-3v8.4H510v3.2h13.5V20h3v-8.4H540zm-18.6-1L510.5.2l-.3-.2h-.2v1.1l9.5 6.3h1.9zm7.2 0h1.9l9.5-6.3V0h-.2l-.3.2-10.9 7.2zm-7.2 5.2h-1.9l-9.5 6.3V20h.2l.3-.2 10.9-7.2zm7.2 0 10.9 7.2.3.2h.2v-1.1l-9.5-6.3h-1.9z" class="U"/><path d="M570 0h-30v20h30V0z" class="V"/><path d="M570 1.5h-16V0h16v1.5zm0 9.3h-16V9.2h16v1.6zm0 9.2h-30v-1.5h30V20z" class="U"/><path d="M554 0h-14v10.8h14V0z" class="W"/><g class="V"><path d="m541.4 1.1.2.4.4.1-.3.3.1.4-.4-.2-.3.2v-.4l-.2-.3.3-.1zm2.8 0 .2.4.4.1-.3.3v.4l-.3-.2-.3.2v-.4l-.3-.3.4-.1zm2.8 0 .2.4.4.1-.3.3v.4l-.3-.2-.3.2v-.4l-.3-.3.4-.1zm2.8 0 .2.4.3.1-.2.3v.4l-.3-.2-.4.2.1-.4-.3-.3.4-.1zm2.8 0 .2.4.3.1-.2.3v.4l-.3-.2-.4.2.1-.4-.3-.3.4-.1zM541.4 3l.2.4h.4l-.3.3.1.4-.4-.2-.3.2v-.4l-.3-.3h.4zm2.8 0 .2.4h.4l-.3.3v.4l-.3-.2-.3.2v-.4l-.3-.3h.4z"/><use xlink:href="#C"/><use xlink:href="#C" x="2.8"/><path d="m552.6 3 .2.4h.3l-.3.3.1.4-.3-.2-.4.2.1-.4-.3-.3h.4zm-11.2 1.8.2.4.4.1-.3.3.1.4-.4-.2-.3.2v-.4l-.3-.3.4-.1zm2.8 0 .2.4.4.1-.3.3V6l-.3-.2-.3.2v-.4l-.3-.3.4-.1zm2.8 0 .2.4.4.1-.3.3V6l-.3-.2-.3.2v-.4l-.3-.3.4-.1zm2.8 0 .2.4.3.1-.2.3V6l-.3-.2-.4.2.1-.4-.3-.3.4-.1zm2.8 0 .2.4.3.1-.3.3.1.4-.3-.2-.4.2.1-.4-.3-.3.4-.1zm-11.2 1.9.2.4h.4l-.3.3.1.4-.4-.2-.3.2v-.4l-.3-.3h.4zm2.8 0 .2.4h.4l-.3.3v.4l-.3-.2-.4.2.1-.4-.3-.3h.4z"/><use xlink:href="#C" y="3.7"/><use xlink:href="#C" x="2.8" y="3.7"/><path d="m552.6 6.7.1.4h.4l-.3.3.1.4-.3-.2-.4.2.1-.4-.3-.3h.4zm-11.2 1.8.2.4h.4l-.3.3.1.5-.4-.2-.3.2v-.5l-.2-.3h.3zm2.8 0 .2.4h.4l-.3.3v.5l-.3-.2-.3.2v-.5l-.3-.3h.4zm2.8 0 .2.4h.4l-.3.3v.5l-.3-.2-.3.2v-.5l-.3-.3h.4zm2.8 0 .2.4h.3l-.2.3v.5l-.3-.2-.4.2.1-.5-.3-.3h.4zm2.8 0 .2.4h.3l-.2.3v.5l-.3-.2-.4.2.1-.5-.3-.3h.4zM542.8 2l.2.4.4.1-.3.3.1.4-.4-.2-.3.2v-.4l-.3-.3.4-.1zm2.8 0 .2.4.4.1-.3.3.1.4-.4-.2-.4.2.1-.4-.3-.3.4-.1zm2.8 0 .2.4.4.1-.3.3v.4l-.3-.2-.4.2.1-.4-.3-.3.4-.1zm2.8 0 .1.4.4.1-.2.3v.4l-.3-.2-.4.2.1-.4-.3-.3.4-.1zm-8.4 1.9.2.4h.4l-.3.3.1.4-.4-.2-.3.2v-.4l-.3-.3h.4zm2.8 0 .2.4h.4l-.3.3.1.4-.4-.2-.4.2.1-.4-.3-.3h.4zm2.8 0 .2.4h.4l-.3.3V5l-.3-.2-.4.2.1-.4-.3-.3h.4zm2.8 0 .1.4h.4l-.2.3V5l-.3-.2-.4.2.1-.4-.3-.3h.4zm-8.4 1.8.2.4.4.1-.3.3.1.4-.4-.2-.3.2v-.4l-.3-.3.4-.1zm2.8 0 .2.4.4.1-.3.3.1.4-.4-.2-.4.2.1-.4-.3-.3.4-.1zm2.8 0 .2.4.4.1-.3.3v.4l-.3-.2-.4.2.1-.4-.3-.3.4-.1zm2.8 0 .1.4.4.1-.2.3v.4l-.3-.2-.4.2.1-.4-.3-.3.4-.1zm-8.4 1.9.2.3.4.1-.3.3.1.4-.4-.2-.3.2v-.4l-.3-.3.4-.1zm2.8 0 .2.3.4.1-.3.3.1.4-.4-.2-.4.2.1-.4-.3-.3.4-.1zm2.8 0 .2.3.4.1-.3.3v.4l-.3-.2-.4.2.1-.4-.3-.3.4-.1zm2.8 0 .1.3.4.1-.2.3v.4l-.3-.2-.4.2.1-.4-.3-.3.4-.1z"/></g><path d="M570 4.6h-16V3h16v1.6zm0 3.1h-16V6.1h16v1.6zm0 9.3h-30v-1.6h30V17zm0-3.1h-30v-1.5h30v1.5z" class="U"/><path d="M570 0h30v20h-30V0z" class="V"/><g class="U"><circle cx="585" cy="10" r="5"/><path d="M660 20h-19V0h19v20z"/></g><path d="M641 0h-11v20h11V0z" class="Y"/><circle cx="640.9" cy="10" r="4.7" class="X"/><path d="M642.4 8.5v2.1c-.1.9-.8 1.5-1.7 1.4-.8-.1-1.4-.7-1.4-1.4V8.5h3.1m.6-1h-4.1a.47.47 0 0 0-.5.5v2.6c.1 1.4 1.3 2.5 2.7 2.4a2.58 2.58 0 0 0 2.4-2.4V8c0-.3-.3-.6-.5-.5z" class="U"/><path d="M642.4 8.5v2.1c-.1.9-.8 1.5-1.7 1.4-.8-.1-1.4-.7-1.4-1.4V8.5h3.1" class="V"/><g class="X"><path d="M638.8 7.7c.1 0 .3.1.3.2s-.1.3-.2.3-.3-.1-.3-.2c-.1-.2.1-.3.2-.3z"/><use xlink:href="#D"/><path d="M638.8 9.8c.1 0 .3.1.3.2s-.1.3-.2.3-.3-.1-.3-.2c-.1-.2.1-.3.2-.3z"/><use xlink:href="#D" y="2.1"/><circle cx="640.9" cy="7.9" r=".3"/><use xlink:href="#D" x="-.5" y="4"/><use xlink:href="#D" x="-3.6" y="4"/></g><g class="W"><use xlink:href="#E"/><use xlink:href="#E" y="-1.1"/><path d="M641.2 11v.4c0 .2-.1.4-.3.4s-.4-.1-.4-.3V11h.7"/><use xlink:href="#E" x=".9"/><use xlink:href="#E" x="-.9"/></g><path d="M660 20V0h30v20h-30z" class="V"/><path d="M690 8.6h-17.6V0h-3.1v8.6H660v3.2h9.3V20h3.1v-8.2H690z" class="W"/><path d="M720 6.7h-30V0h30v6.7zm0 13.3h-30v-6.7h30V20z" class="U"/><path d="M720 13.3h-30V6.6h30v6.7z" class="V"/><path d="M630 5h-30V0h30v5zm0 15h-30v-5h30v5z" class="U"/><path d="M630 15h-30V5h30v10z" class="X"/><path d="M609.8 6.5h-.3c-.1-.3-.4-.5-.7-.5-.2 0-.3.1-.5.2a.76.76 0 0 0-.4-.2c-.3 0-.6.2-.7.5h-.3a.68.68 0 0 0-.7.7c0 .3.1.5.4.6l-.2-.2.3-.3s-.1-.1-.1-.2.1-.2.2-.2.2.1.2.1c.2-.1.4-.2.6-.2v-.1c0-.1.1-.2.2-.2s.2.1.2.2h.4c0-.1.1-.2.2-.2s.2.1.2.2v.1c.2.1.4.1.6.2 0-.1.1-.1.2-.1s.2.1.2.2 0 .1-.1.2l.3.3-.2.2c.2-.1.4-.4.4-.6 0-.4-.2-.7-.6-.8l.2.1zm1.6 2.6h1v4h-1z" class="V"/><path d="M611.2 8.6h1.4v.5h-1.4z" class="Z"/><path d="M610.7 10h1.9v.5h-1.9zm1.9 1.9-1.4-.5V11l1.4.4z" class="U"/><path d="M606 11h2.4v1.2c0 .7-.5 1.2-1.2 1.2s-1.2-.5-1.2-1.2V11z" class="Z"/><path d="M604.3 9.1h1v4h-1z" class="V"/><path d="M604.1 12.9h1.4v.5h-1.4zm0-4.3h1.4v.5h-1.4z" class="Z"/><path d="M603.8 13.3h1.9v.5h-1.9z" class="W"/><path d="M611.2 12.9h1.4v.5h-1.4z" class="Z"/><path d="M610.9 13.3h1.9v.5h-1.9z" class="W"/><path d="M606.9 8.1h2.8v.5h-2.8z" class="Z"/><path d="M609.9 7.4c-.4-.4-1-.7-1.6-.7s-1.2.2-1.6.7l-.3.3.5.5h2.8l.5-.5-.3-.3zm-2.5.5c-.1 0-.2-.1-.2-.2s.1-.2.2-.2.2.1.2.2-.1.2-.2.2zm1 0c-.1 0-.2-.1-.2-.2s.1-.2.2-.2.2.1.2.2-.1.2-.2.2zm.9 0c-.1 0-.2-.1-.2-.2s.1-.2.2-.2.2.1.2.2c.1.1 0 .2-.2.2zm-5.2 4 1.4-.5V11l-1.4.4z" class="U"/><path d="M608.6 6.7zm0-.7v-.2h-.5V6c.1 0 .2.1.2.1.1 0 .2-.1.3-.1z" class="Z"/><path d="m605.1 8.6.1-.4c0-.1-.1-.3-.2-.3h-.3c-.1 0-.3.1-.3.3l.1.4h.6z" class="U"/><circle cx="608.3" cy="11" r=".7" class="W"/><path d="M607.7 11c0-.2.1-.4.2-.5h-1.4V10h.2v-.4h-.2v-.5h1.4v.5h-.2v.4h.2v.5c.1-.1.3-.2.5-.2V8.6h-1.9a.47.47 0 0 0-.5.5v.9h-1.9v.5h1.9v.5h.5v2.1c.1.1.3.2.5.2V11h.5v2.3c.2 0 .3-.1.5-.2v-1.6c-.2-.2-.3-.3-.3-.5zm.1-.5z" class="U"/><path d="M610.2 8.6h-1.9v1.7a.68.68 0 0 1 .7.7h1.7V9c0-.2-.2-.4-.5-.4zM610 10a.47.47 0 1 1-1 0v-.4a.47.47 0 1 1 1 0v.4z" fill="#fff"/><path d="m612.2 8.6.1-.4c0-.1-.1-.3-.2-.3h-.4c-.1 0-.3.1-.3.3v.1l.1.4h.7zM609 11c0 .2-.1.3-.2.5h1.4v.7a.7.7 0 1 1-1.4 0v-.7c-.1.1-.3.2-.5.2v.5c-.1.7.4 1.2 1.1 1.3s1.2-.4 1.3-1.1V11H609zm.8.9v.2c0 .1-.1.2-.2.2s-.2-.1-.2-.2v-.2h.4" class="U"/><path d="M730 0h10v20h-10z" class="X"/><path d="M730 20h-10V0h10v20z" class="W"/><path d="M750 20h-10V0h10v20zm-13.3-9.5h-.5c-.1 0-.2.1-.3 0v-.1h-.1s-.1-.1-.1 0-.1.1-.2.2v.1h.1l.1.1v.1l-.1.1c0 .1.1.1.1.2l.1-.1-.1-.1h.2v.3h.1V11h.3l-.1.2h.2s.1-.2.2-.2.1.2 0 .2l.1.1V11l-.1-.1v-.1c0-.2.1-.2.1-.3-.1-.1.2 0 0 0zm.3 1.1c-.1-.1-.1-.1-.3-.1h-.5c-.1 0-.2.1-.3 0v-.1h-.1l-.1-.1-.2.2v.1h.1l.1.1v.1l-.1.1.1.2V12l-.1-.1h.2c.1 0 0 .1 0 .1v.1s0 .1-.1.1h.1v-.3h.3v.1l-.1.2h.2c0-.1.1-.2.2-.2 0 0 .1.2 0 .2h.1v-.3l-.1-.1v-.1c.1-.1.6-.1.6-.1zm-3.2-1.5h.3v2.3h-.3zm.5 0h.3v2.3h-.3zm-1.5 2.3c.1 0 .2.1.3.1v-2.3h-.3v2.2zm.5-2.3h.3v2.3h-.3zm2.2-2.6h.3v2.4h-.3zm.7 0h.3v2.4h-.3zm.6 0h.3v2.4h-.3z" class="U"/><path d="M735.7 10.5c0-.1 0-.1 0 0v-.1.1c0-.1 0-.1 0 0zm.1.2c.1-.1.2-.1.2-.2h-.1c0 .1-.1.2-.1.2zm.1-.2v-.2.2c0-.1 0-.1 0 0zm-.1.3c0-.1-.1-.1 0 0-.1 0 0 0 0 0zm.2.4h-.1l.1.1zm0 .1h.2-.1zm.5 0h.1v-.1zm.4 0h-.1.1zm-1.2.1v-.1.1zm.1.3c.1-.1.2-.1.2-.2h-.1c0 .1-.1.2-.1.2zm.1-.2v-.2.2c0-.1 0-.1 0 0zm-.1.3zm.1.4.1.1v-.2zm.1.1h.2-.1zm.5 0h.1v-.1zm.3 0h.1-.1z" fill="#4173cd"/><path d="M738.8 9c0-.6-.5-.9-.8-.8 0-.1-.1-.2-.2-.2s-.1 0-.2.1c0-.1 0-.2.1-.3.3-.2.4-.6.2-.9l-.2-.2c-.3-.2-.8-.3-1 0-.1.1 0 .3.1.3-.2.1-.4.2-.7.1s-.1-.4-.1-.5c.1-.1.2-.4 0-.5 0-.1-.2-.1-.3-.1-.3 0-.4.3-.7.3s-.4-.3-.7-.3c-.2 0-.4.1-.4.3 0 .1 0 .2.1.3s.2.4-.1.5c-.2.1-.5 0-.7-.1.1-.1.2-.2.1-.3-.2-.3-.7-.2-1 0s-.4.6-.2.9l.2.2c.1.1.1.2.1.3 0-.1-.1-.1-.2-.1s-.2.1-.2.2c-.3-.1-.8.2-.8.8 0 .3.2.6.5.7-.1 0-.1.1-.1.2s.1.2.2.2h.1c.2.3.1.6-.1.9h-.1c-.2 0-.3.1-.3.3 0 .1.1.3.2.3-.3.3-.3.8 0 1.1.4.5 1.4.5 1.8.5.2 0 .5.1.6.3-.1.1-.1.1-.1.2.1.2.3.3.5.4.1 0 .2-.1.2-.2.1.1.2.2.4.1.1 0 .1-.1.1-.1 0 .1.1.2.2.2s.2 0 .2-.1c.2 0 .3-.2.2-.3 0-.1-.1-.1-.1-.2.2-.2.4-.3.6-.3.5 0 1.4 0 1.8-.5.3-.3.3-.8 0-1.1.1 0 .3-.1.2-.3 0-.1-.1-.3-.3-.3h-.1c-.3-.2-.3-.6-.1-.9h.1c.1 0 .2-.1.2-.2s-.1-.2-.1-.2c.6-.1.8-.4.9-.7zm-6.2-1.4h2.2v2.2h-2.2V7.6zm2.3 4.9H733c-.5 0-.5-.6-.5-.6v-1.7h2.3l.1 2.3zm.3-5h2.3v2.4h-2.3V7.5zm2.3 4.4s0 .6-.5.6h-1.8v-2.3h2.3v1.7z" class="Z"/><path d="M732.5 9.9h2.3V7.5h-2.3v2.4zm.5-1.3.7-.8.3.3.1-.2v-.1c0-.1 0-.2.1-.2h.2c.1 0 .1.1.1.2s-.1.2-.2.2h-.1v-.1s.1 0 .1-.1v-.1h-.1c-.1 0-.1.1-.1.1v.1l-.2.2.3.4-.3.8h-.8l-.4.5v-.1l.4-.6-.1-.5z" class="U"/><path d="M734.6 9.3c-.1 0-.1 0-.2.1s-.2.2-.3.1l-.1-.1h.1l.3-.8-.7-.8-.7.8.3.8h.1s0 .1-.1.1-.2 0-.3-.1c0-.1-.1-.1-.2-.1s-.1.1-.1.2 0 .2.2.3v-.1c-.1 0-.1-.1-.1-.1v-.1h.1c.2.2.3.2.4.2s.1-.1.2-.2h.4c0 .1.1.2.2.2s.2.1.4-.2h.1v.1s0 .1-.1.1v.1c.2-.1.2-.2.2-.3-.1-.1-.1-.1-.1-.2zm-.9 0h-.3l-.2-.7.5-.6v1.3zm.1 0V8l.5.6-.3.6-.2.1zM780 6.7h-30V0h30v6.7z" class="V"/><path d="M780 20h-30v-6.7h30V20z" class="U"/><path d="M780 13.3h-30V6.7h30v6.6z" class="Y"/><path d="M810 20h-30v-6.9h30V20z" class="W"/><path d="M810 13.1h-30V6.7h30v6.4z" class="V"/><path d="M810 0h-30v6.7h10.9v4.9a4.08 4.08 0 0 0 3.9 4.1h.1c2.3 0 4.1-1.8 4.1-4.1V6.7h11V0z" class="U"/><path d="M799 6c-.5-.2-1-.4-1.5-.5l.1-.4c.6.1 1.1.3 1.6.5l.4-1.1c-.2-.2-.5-.5-.8-.7-.3 0-.7.1-1 .1-.3-.2-.6-.4-.8-.6l-1 .3c-.3-.1-.6-.3-.9-.4-.3.1-.6.3-.9.4l-1-.3c-.3.2-.6.4-.8.6-.3 0-.7-.1-1-.1-.3.2-.5.5-.8.7l.7 1.8c.5-.2 1-.4 1.5-.5.5-.1 1-.2 1.5-.2h1.6c.5 0 1 .1 1.5.2s1 .3 1.5.5l.1-.3zm-6.6-1.6 1.8-.3v.4c-.6.1-1.1.1-1.7.3l-.1-.4zm.2 1.1-.1-.4 1.7-.3v.4l-1.6.3z" class="W"/><path d="M795.8 13.6h-1.5v1.7c-.6-.1-1.1-.3-1.5-.7v-1h-.9c-.3-.5-.5-1.1-.6-1.8h1.5v-1.7h-1.5V8.4h1.5V6.7h1.5v1.7h-1.5v1.8h1.5v1.7h-1.5v1.8h1.5v-1.8h1.5v1.7zm0-3.4h-1.5V8.4h1.5v1.8zm3 0h-1.5v1.7h1.5c-.1.6-.3 1.2-.6 1.8h-.9v1c-.4.3-1 .6-1.5.7v-1.7h1.5v-1.8h-1.5v-1.7h1.5V8.4h-1.5V6.7h1.5v1.7h1.5v1.8z" fill="#fff"/><path d="M798.6 4.5c-.2-.1-.3 0-.4.2 0 .2.1.3.2.4.2.1.3 0 .4-.2s0-.4-.2-.4zm-7.2 0c-.2 0-.3.2-.2.4s.2.2.4.2.3-.2.2-.4c0-.2-.2-.3-.4-.2zm3.5-.1c0-.1-.1-.3-.2-.3s-.3.1-.3.2.1.3.2.3c.2 0 .3-.1.3-.2zm.4-.2c-.1 0-.2.1-.3.2 0 .1.1.2.2.2s.3-.1.3-.2c.1-.1 0-.2-.2-.2zm-.3.6c-.1 0-.2.1-.2.2s.1.2.2.2.2-.1.2-.2-.1-.3-.2-.2zm1.7-.2-.4-.1a.55.55 0 0 0-.5.3c0 .2.2.4.4.4l.4.1a.55.55 0 0 0 .5-.3c-.1-.1-.2-.3-.4-.4z" class="X"/><path d="M810 0h30v20h-30" class="V"/><g class="Y"><path d="M826.2 14.4c-.4.2-.7.7-.6 1.2.4-.2.6-.7.6-1.2zm.7-.2c-.3.3-.7.8-.5 1.2.4-.3.5-.8.5-1.2zm.6-.3c-.3.2-.6.9-.4 1.2.4-.3.5-.8.4-1.2zm.6-.5c-.3.3-.4.8-.3 1.2.3-.3.5-.9.3-1.2zm.6-.5c-.4.3-.5.8-.4 1.3.4-.3.6-.8.4-1.3zm1.2.2c-.3 0-1.1.5-1 .9.6-.1.9-.5 1-.9zm-1.5 1.5c.4.4 1.3-.1 1.3-.3-.5-.1-1 0-1.3.3zm-.5.3c.1.3.9.4 1.2.1-.4-.3-.7-.2-1.2-.1zm-.8.4c.3.3.8.5 1.2.4-.3-.4-.7-.6-1.2-.4zm-.6.4c.2.4.8.5 1.2.3-.4-.4-.8-.5-1.2-.3zm-.7.2c.2.4.5.6 1.1.6-.2-.5-.6-.7-1.1-.6z"/><path d="m825.1 16 .9-.3c-.2 0-.6.2-.9.3l-.2-.1h-.1l-1-.2c.3.1.6.3.9.3-.2.1-.4.1-.6.3l.8-.2.8.2c-.2-.2-.4-.2-.6-.3zm-1-.4c.1-.5-.1-1-.6-1.2 0 .5.2 1 .6 1.2zm-.8-.2c.2-.4-.2-.9-.5-1.2 0 .4.2.9.5 1.2zm-1-1.5c-.1.4 0 .9.4 1.2.2-.4-.1-1-.4-1.2zm-.6-.5c-.2.3 0 .9.3 1.2.1-.4 0-.9-.3-1.2zm-.7-.5c-.1.5 0 1 .3 1.3.2-.5.1-1-.3-1.3z"/><path d="M820.9 14.1c.1-.4-.7-1-1-.9 0 .3.3.7 1 .9zm.4.5c-.4-.3-.9-.4-1.3-.3.1.2.9.7 1.3.3zm.6.3c-.5-.1-.8-.2-1.2.1.2.3 1.1.2 1.2-.1zm.7.4c-.4-.2-.9 0-1.2.4.4.1.9-.1 1.2-.4zm.7.4c-.4-.1-.9 0-1.2.3.4.2.9.1 1.2-.3zm-.5.7c.7.1.9-.1 1.1-.6-.4 0-.9.2-1.1.6z"/></g><path d="M818.3 8.4s-.2.2.1.7.1 1 .3 1.2 0 .5.3.8c.5.4 1 .7 1.6.8.5.1 1.1-.5 1.4-.1s.2.7.5.7.3-.1.3-.3a.68.68 0 0 1 .7-.7c.6 0 1.3-.1 1.9-.4.8-.3 1.3-.5 1.4-1s.4-1.1 1-.8.6.1.7 0 .8.2 1 .1-1.1-1.2-1-1.7.2-1 .7-1 .4-.6.9-.9c.4-.2.8-.4 1.1-.7.4-.4 1.5-1.3 1.5-1.3l-2.5 1.1c-.4.1-.6.7-1.8 1s-1.2.5-2.2.7c-1.2.2-2.5.1-3.7-.2-.1 0-.2 0-.3.2v.1c0 .5 0 1.5-.6 1.6 0 0-.9-.7-1.4-.4-.4.1-.7 1.1-1.2 1s-.4-.8-.7-.5z" class="X"/><path d="M870 10h-30V0h30v10z" class="V"/><path d="M870 20h-30V10h30v10z" class="U"/><path d="M840 20V0l15 10-15 10zm60-13.3h-30V0h30v6.7z" class="W"/><path d="M900 20h-30v-6.7h30V20z" class="V"/><path d="M900 13.3h-30V6.7h30v6.6z"/><path d="M900 0h30v17.8h-30z" class="V"/><path d="M900 13.3h30v2.2h-30zm0 4.5h30V20h-30zm10.5-13.4H930v2.2h-19.5zM900 6.7v4.4h4.2V6.7zm30-4.5V0h-30v4.4h4.2V0h2.2v4.4h4.1V2.2zm-23.6 8.9H930V8.9h-19.5V6.7h-4.1z" class="W"/><path d="M960 10h-30V0h30v10z" class="V"/><path d="M930 10h30v10h-30V10zm10.5-6.8c-3.8 0-6.9 3.1-6.9 6.8h13.7c.1-3.8-3-6.8-6.8-6.8z" class="U"/><path d="M940.5 16.8a6.81 6.81 0 0 0 6.8-6.8h-13.7c.1 3.8 3.2 6.8 6.9 6.8z" class="V"/><path d="M990 13.3h-30V20h30v-6.7z" class="Y"/><path d="M990 0h-30v6.7h30V0z" class="U"/><path d="M990 6.7h-30v6.7h30V6.7z" class="V"/><path d="M1000 20h-10V0h10v20z" class="Y"/><path d="M1020 20h-10V0h10v20z" fill="#ff9b46"/><path d="M1010 20h-10V0h10v20z" class="V"/><path d="M1030 20h-10V0h10v20z" class="Y"/><path d="M1050 20h-10V0h10v20z" class="U"/><path d="M1040 20h-10V0h10v20z" class="V"/><path d="M1080 6.7h-30V0h30v6.7zm0 13.3h-30v-6.7h30V20z" fill="#c8414b"/><path d="M1080 13.3h-30V6.7h30v6.6z" class="V"/><path d="M1110 10h-30V0h30v10z" class="W"/><path d="M1080 10h30v10h-30V10z" class="U"/><g class="X"><path d="M1089.2 4.2s0-.1 0 0c.1-.1 0-.2 0-.2-.1 0-.1.1 0 .2-.1-.1-.1-.1 0 0-.1-.1-.1 0 0 0zm-.4-.2c.1 0 .1-.1 0 0 .1-.1 0-.2 0-.2V4c0-.1 0-.1 0 0 0-.1 0-.1 0 0zm.8 1.5c0-.1 0-.1 0 0-.1-.1-.2 0-.2 0s.1.1.2 0zm-.2.2c-.1.1 0 .2 0 .2.1 0 .1-.1 0-.2.1.1.1.1 0 0zm-1.3-1.9c.1 0 .1-.1 0 0 .1-.1.1-.1 0 0 .1-.1 0-.2 0-.2s-.1 0 0 .2c-.1-.1 0 0 0 0zm.4 0c.1-.1 0-.2 0-.2s-.1.1 0 .2c-.1 0 0 0 0 0zm-.8.6v1.2h.3V4.4h-.3zm.4 0v1.3c.1.1.2.3.3.5V4.5c-.1-.1-.2-.1-.3-.1zm.5.2v1.5l.1-.1s.4-.9-.1-1.4zm-1 1V4.4l-.3.1v1.3c.1-.1.2-.2.3-.2zm2-.6c-.1 0-.1.1 0 0-.1.1 0 .2 0 .2V5c0 .1 0 0 0 0zm-.2-.3c0 .1 0 .1 0 0 .1.1.2 0 .2 0h-.2c0-.1 0 0 0 0z"/><path d="M1089.3 4.4s0 .1 0 0c.1.1.2 0 .2 0s-.1-.1-.2 0c0-.1 0 0 0 0zm-2.8.1c.3-.1 1.6-.5 2.1-.1s.4 1.2.3 1.5c.1 0 .2 0 .3-.1.2-.4.2-1-.1-1.4-.2-.3-.6-.5-.9-.5-.6 0-1.1.1-1.7.3v.3zm-3.4-.5c.1 0 .1-.1 0 0 .1-.1 0-.2 0-.2V4c0-.1 0-.1 0 0 0-.1 0-.1 0 0zm-.2 1.9h.3c-.3-.5-.1-1.1.3-1.5.5-.4 1.8 0 2.1.2v-.3l-1.7-.3c-.4 0-.8.2-.9.5-.4.4-.4.9-.1 1.4zm.6-2.1c.1-.1 0-.2 0-.2s-.1.1 0 .2c-.1 0-.1 0 0 0zm.4 0s.1-.1 0 0c.1-.1.1-.1 0 0 .1-.1 0-.2 0-.2-.1 0-.1 0 0 .2-.1-.1-.1 0 0 0zm-1.1.3s0 .1 0 0c.1.1.2 0 .2 0-.1 0-.1-.1-.2 0 0-.1 0 0 0 0z"/><path d="M1088.4 6.5c-.1 0-.1 0-.1-.1 0-.2-.1-.5-.2-.6h-.2c-.3-.2-.9.4-1.1.7s-.1 0-.1-.1v-.2c-.1-.2-.3-.6-.7-.6s-.6.5-.7.7v.1h-.1c-.2-.3-.7-.9-1.1-.7s-.3.7-.3.7 0 .1-.1.1h-.1c-.3-.4-.8-.6-1.2-.4.3.6.6 1.2.7 1.8 1.9-.4 3.8-.4 5.7 0 .2-.6.4-1.3.7-1.8-.1-.3-.8-.2-1.1.4 0-.1 0-.1 0 0zm-5 1c0-.1 0-.1 0 0-.1-.2-.3-.5-.5-.5v-.1c.1 0 .1-.1.1-.1v-.2h.1c0 .1.1.1.1 0v-.1.1c0 .3 0 .5.1.8v.1c0 .1.2 0 .1 0zm1.2-.3c-.1 0-.1 0 0 0l-.1-.1c0-.1-.3-.4-.4-.4s0-.1.1-.1.1-.1.1-.1v-.1h.1c0 .1.1 0 .2-.1s0-.1.1-.1 0 .1 0 .1c-.3.3-.2.6-.1.9-.1 0 0 0 0 0zm1.8-.8c-.2.2-.3.4-.3.7v.1s0 .1-.1.1c0 0-.1 0-.1-.1v-.1c0-.3-.1-.5-.3-.7v-.1h.1s.1.1.1 0c0 0 .1-.1 0-.1s0-.1.1-.1c0 0 .1 0 .1.1s0 .1.1.1h.2l.1.1c-.1-.1 0-.1 0 0zm1.6.3c-.2 0-.4.2-.4.4v.1l-.1.1s-.1 0 0-.1v-.1c.1-.3.1-.5.1-.8v-.1l.1.1c0 .1.1.1.2.1m-.1-.1v.1c0 .1 0 .1.1.2s.1 0 .1.1l.1.1-.3-.5zm1.2.6c-.2 0-.3.3-.4.4v.1l-.1.1v-.2c.1-.2.1-.5.1-.8v-.1.1c0 .1.1.1.1 0h.1v.1c0 .1 0 .2.1.2v.1c0 .1.2 0 .1 0zm-4.4-3.1c.1-.1 0-.2 0-.2s-.1.1 0 .2c-.1-.1-.1-.1 0 0-.1 0 0 0 0 0zm2.8 0c.1-.1 0-.2 0-.2s-.1.1 0 .2c-.1 0-.1 0 0 0zm-3.2 0c.1 0 .1-.1 0 0 .1-.1 0-.2 0-.2s-.1.1 0 .2c-.1-.1 0 0 0 0z"/><path d="M1086.9 4.6v1.6l.3-.3V4.5l-.3.1zm.1-.8s0 .1 0 0c.1.1.2 0 .2 0s-.1-.1-.2 0c0-.1 0 0 0 0zm-2 .1s.1-.1 0 0c.1-.1 0-.2 0-.2s-.1.1 0 .2c-.1-.1-.1-.1 0 0-.1-.1 0 0 0 0zm2.8-.1s0-.1 0 0c.1-.1 0-.2 0-.2s-.1.1 0 .2c-.1-.1-.1 0 0 0zm-1.5-1.3.1.1.2-.1-.2-.1-.1.1zm-1.6 3.2V4.5l-.3-.1v1.2c.1 0 .2 0 .3.1zm-1.1.5c0-.2.1-.4.2-.5V4.4c-.1 0-.2 0-.3.1l.1 1.7zm.4-1.8v1.2h.2V4.4h-.2zm1.1 1.7V4.6l-.3-.1v1.3l.3.3zm1.4-.3c-.1-.5-.2-1-.2-1.6l-.2.1v1.2a1.38 1.38 0 0 1 .4.3zm-1.4-1.8zm-2.7 1.6c.1 0 .1-.1 0 0 .1-.1 0-.2 0-.2v.2c0-.1 0-.1 0 0 0-.1 0-.1 0 0zm.1.3c.1 0 .1-.1 0 0 .1-.1 0-.2 0-.2v.2c0-.1 0-.1 0 0 0-.1 0 0 0 0zm-.1-1.2c0 .1 0 .1 0 0 .1.1.2 0 .2 0h-.2zm3.5-2.6.1.1h.1l.1-.1-.1-.2-.2.2zm-3.5 3.1c.1 0 .1-.1 0 0 .1-.1 0-.2 0-.2s-.1.1 0 .2c-.1-.1 0 0 0 0zm.1-.8s.1.1 0 0c.1.1.2 0 .2 0s0-.1-.2 0c.1-.1 0 0 0 0zm.8 1.6.1.1V4.6c-.4.4-.1 1.3-.1 1.4zm2.3-3.6-.2.1.2.1.1-.1-.1-.1zm.4 0c-.1 0-.1.1-.1.1 0 .1.1.1.1.1l.1-.1c0-.1 0-.1-.1-.1zm-.7 1.6c.1-.1.1-.2 0-.2 0 0-.1.1 0 .2-.1 0 0 0 0 0z"/><circle cx="1086" cy="3.5" r=".3"/><path d="m1086 2.8-.1.1.1.1h.1l.1-.1-.2-.1zm-.1 2.8V4.3l-.2-.1c0 .5-.1 1-.2 1.6a.76.76 0 0 1 .4-.2zm-.7.5.3-1.4-.3-.1v1.5zm1.7-2.1z"/><circle cx="1086.3" cy="4" r=".1"/><path d="m1086.7 4.6-.2.1c0 .5.1.9.2 1.3V4.6zm-.7-.4s.1-.1 0 0c.1-.1 0-.2 0-.2s-.1 0 0 .2c-.1-.1-.1-.1 0 0-.1-.1 0 0 0 0z"/><circle cx="1086.7" cy="3.9" r=".1"/><path d="M1085.6 4c0 .1 0 .1 0 0 .1.1.2.1.2 0 0 0-.1-.1-.2 0 0-.1 0 0 0 0zm54.4 2.7h-30V0h30v6.7z"/></g><path d="M1140 20h-30v-6.7h30V20z" class="U"/><path d="M1140 13.3h-30V6.7h30v6.6z" class="Y"/><path d="M1169.9 0H1155v20h15l-.1-20z" class="U"/><path d="M1140.1 20h14.9V0h-15m0 .1v20-20z" class="V"/><path d="M1144.4 1.2V3h1.8v1.4h-1.8v1.8h-1.4V4.4h-1.8V3h1.8V1.2h1.4m.2-.1h-1.8v1.8h-1.8v1.8h1.8v1.8h1.8V4.6h1.8V2.8h-1.8V1.1z" class="U"/><path d="M1230 13.4h-30V20h30v-6.6z" class="W"/><path d="M1230 0h-30v6.7h30V0z" class="U"/><path d="M1230 6.7h-30v6.7h30V6.7zm30 3.3h-30V0h30v10z" class="V"/><path d="M1260 20h-30V10h30v10z" class="U"/><path d="M1270 20h-10V0h10v20z" class="W"/><path d="M1290 20h-10V0h10v20z" class="U"/><path d="M1280 20h-10V0h10v20z" class="X"/><path d="M1290 6.7h30v6.7h-30z" class="W"/><path d="M1290 13.4h30v6.7h-30z" class="V"/><path d="M1320 0h-30v6.7h7.6v4c0 2.8 3.7 3.7 3.7 3.7s3.7-.9 3.7-3.7v-4h15V0z" class="U"/><path d="M1299.1 6.6h4.4V4.8l-.9.4-1.3-1.3-1.3 1.3-.9-.4z" class="b"/><path d="m1304.1 11.4-2.8-2.9-2.8 2.9.9.9 1.9-1.9 1.9 1.9z" class="X"/><path d="M1304.1 8.7h-1.3c.1-.1.1-.3.1-.4 0-.5-.4-.9-.9-.9-.3 0-.6.2-.8.4-.1-.3-.4-.5-.8-.4-.5 0-.9.4-.9.8 0 .2 0 .3.1.4h-1.3c0 .5.4.9.9.9 0 .5.4.9.9.9 0 .4.3.8.7.9l-.7 1.5a2.56 2.56 0 0 0 2.1 0l-.7-1.5c.4-.1.7-.4.7-.9.5 0 .9-.4.9-.9.7.1 1-.3 1-.8z" fill="#fff"/><path d="M1320 6.7h30v6.7h-30z" class="W"/><path d="M1320 13.4h30v6.7h-30z" class="U"/><path d="M1350 0h-30v6.7h7.6v4c0 2.8 3.7 3.7 3.7 3.7s3.7-.9 3.7-3.7v-4h15V0z" class="V"/><path d="M1328.6 5.8v4.8c0 .3.1.6.2.9h5c.1-.3.2-.6.2-.9V5.8h-5.4zm4.4 4.2h-1.3v.8h-.8V10h-1.2v-.8h1.2v-.9h-.8v-.8h.8v-.8h.8v.8h.8v.8h-.8v.8h1.3v.9z" class="U"/><path d="M1329.9 12.7c.4.3.9.5 1.4.6l1.4-.6c.5-.3.9-.7 1.1-1.2-.2-.2-.5-.3-.8-.3h-.3c-.3-.7-1.2-1.1-1.9-.8-.3.1-.6.4-.8.8h-.3c-.3 0-.6.1-.8.3.1.5.5.9 1 1.2z" class="W"/><path d="M1350 0h30v6.7h-30z" class="V"/><path d="M1350 6.7h30v6.7h-30z" class="W"/><path d="M1350 13.4h30v6.7h-30z" class="U"/><path d="M1363.7 6.6v.9c0 2-2.6 2.6-2.6 2.6s-2.6-.6-2.6-2.6V4h5.2v2.6z" fill="#f0f0f0"/><path d="M1363.7 6.6v.9c0 2-2.6 2.6-2.6 2.6s-2.6-.6-2.6-2.6V4h5.2v2.6z" class="W"/><path d="M1363.7 6.6v.9c0 2-2.6 2.6-2.6 2.6s-2.6-.6-2.6-2.6v-.9l.9.9 1.7-1.3 1.7 1.3.9-.9z" fill="#fff"/><path d="M1380 0h15v20h-15z" class="b"/><path d="M1395 0h15v20h-15z" class="V"/><path d="m1401.4 8.7 1.9 2.5c-.3.4-.3 1.1 0 1.5.4.6 1.3.7 1.8.3s.7-1.3.3-1.8c-.3-.4-.9-.6-1.4-.5l-2.9-3.9-.7.5-1 .8 1 1.4 1-.8zm2.7 2.9c.2-.1.5-.1.6.1a.47.47 0 0 1-.1.6.37.37 0 0 1-.6 0 .37.37 0 0 1 0-.6c0-.1.1-.1.1-.1z" fill="#acabb1"/><path d="m1404.6 9.5 1-1.4-1-.8-.7-.5-2.9 3.9c-.5-.2-1.1 0-1.4.5-.4.6-.3 1.4.3 1.8s1.4.3 1.8-.3c.3-.4.3-1.1 0-1.5l1.9-2.5 1 .8zm-3.6 2.7c-.1.2-.4.2-.6.1s-.2-.4-.1-.6.4-.2.6-.1.2.4.1.6z" class="b"/><path d="M1410 0h30v20h-30z" class="V"/><path d="M1428.2 5.7c-2.4-1.6-5.7-1-7.3 1.5-.9 1.2-.6 2.8.6 3.7s2.8.6 3.7-.6c0-.1.1-.1.1-.2.8-1.2 2.4-1.5 3.7-.7s1.5 2.4.7 3.7c1.6-2.6.9-5.8-1.5-7.4" class="U"/><path d="M1420.9 7.1c-.9 1.2-.6 2.8.6 3.7s2.8.6 3.7-.6c0-.1.1-.1.1-.2.8-1.2 2.4-1.5 3.7-.7s1.5 2.4.7 3.7c-1.6 2.4-4.9 3.1-7.3 1.5s-3.1-4.9-1.5-7.4" class="W"/><g class="a"><path d="m1430.9 3.7 1 1.4c.1.1 0 .3-.1.4l-.2.2c-.1.1-.3.1-.3-.1l-1-1.4c-.1-.1 0-.3.1-.4l.2-.2c0-.1.2-.1.3.1zm1.4 2.2 1 1.4c.1.1 0 .3-.1.4l-.2.2c-.1.1-.3 0-.4-.1l-1-1.4c-.1-.1 0-.3.1-.4l.2-.2c.2-.1.4 0 .4.1zm-.4-2.9 2.4 3.7c.1.1 0 .3-.1.4l-.2.2c-.1.1-.3 0-.4-.1l-2.4-3.7c-.1-.1-.1-.3.1-.4l.2-.2c.1 0 .3 0 .4.1zm1-.7.9 1.4c.1.1.1.3-.1.3l-.2.2c-.1.1-.3 0-.4-.1l-1-1.4c-.1-.1 0-.3.1-.4l.2-.2c.2 0 .4 0 .5.2z"/><use xlink:href="#F"/><path d="m1417.9 12.3 2.4 3.7c.1.1 0 .3-.1.4l-.2.2c-.1.1-.3 0-.4-.1l-2.4-3.6c-.1-.1 0-.3.1-.4l.2-.2c.2-.2.3-.1.4 0z"/><use xlink:href="#F" x="-17.5" y="8.5"/><path d="m1418.4 15.2 1 1.4c.1.1 0 .3-.1.4l-.2.2c-.1.1-.3 0-.4-.1l-1-1.4c-.1-.1 0-.3.1-.4l.2-.2c.1-.1.3 0 .4.1zm-2.5-1.5 2.4 3.6c.1.1 0 .3-.1.4l-.2.2c-.1.1-.3 0-.4-.1l-2.4-3.6c-.1-.1 0-.3.1-.4l.2-.2c.1-.1.3-.1.4.1zm1.3-6.4 2.4-3.7c.1-.1.2-.2.4-.1l.2.2c.1.1.2.2.1.4l-2.4 3.7c-.1.1-.2.1-.4.1l-.2-.2c-.1-.1-.2-.2-.1-.4zm-1-.7 2.4-3.6c.1-.1.2-.2.4-.1l.2.2c.1.1.2.2.1.4l-2.4 3.7c-.1.1-.2.1-.4.1l-.2-.2c-.1-.1-.2-.3-.1-.5zm-1-.6 2.4-3.7c.1-.1.2-.2.4-.1l.2.2c.1.1.1.2.1.4l-2.4 3.7c-.1.1-.2.2-.4.1l-.2-.2c-.2-.2-.2-.3-.1-.4zm15 9.9 1-1.4c.1-.1.2-.1.4-.1l.2.2c.1.1.2.2.1.4l-1 1.4c-.1.1-.2.1-.4.1l-.2-.2c-.2-.1-.2-.2-.1-.4zm1.5-2.2.9-1.4c.1-.1.2-.2.4-.1l.2.2c.1.1.2.2.1.3l-1 1.4c-.1.1-.2.2-.4.1l-.2-.2c-.1 0-.1-.2 0-.3zm-.5 2.9 1-1.4c.1-.1.2-.1.4-.1l.2.2c.1.1.2.2.1.4l-.9 1.4c-.1.1-.2.2-.4.1l-.2-.2c-.2-.1-.3-.2-.2-.4zm1.5-2.2 1-1.4c.1-.1.2-.2.3-.1l.2.2c.1.1.1.2.1.4l-1 1.4c-.1.1-.2.1-.4.1l-.2-.2c-.1-.1-.1-.3 0-.4zm-.5 2.9 1-1.4c.1-.1.2-.2.4-.1l.2.2c.1.1.2.2.1.4l-.9 1.4c-.1.1-.2.2-.4.1l-.2-.2c-.2-.1-.2-.2-.2-.4zm1.5-2.2 1-1.4c.1-.1.2-.1.4-.1l.2.2c.1.1.2.2.1.4l-1 1.4c-.1.1-.2.1-.4.1l-.2-.2c-.1-.1-.2-.3-.1-.4z"/></g><path d="M1470 6.7h-20V0h20v6.7z" class="Y"/><path d="M1470 20h-20v-6.7h20V20z" class="a"/><path d="M1450 6.7h20v6.7h-20z" class="V"/><path d="M1450 20h-10V0h10v20z" class="U"/><path d="M1479 0h21v20h-21z" fill="#751a46"/><path d="m1482.3 4.1-3 1.5 3 1.4-3 1.5 3 1.5-3 1.5 3 1.5-3 1.5 3 1.5-3 1.5 3 1.4-2.2 1.1H1470V0h10.1l2.2 1.1-3 1.5z" class="V"/><path d="M1509 0h21v20h-21z" fill="#d80027"/><path d="m1512.3 4.1-3 1.5 3 1.4-3 1.5 3 1.5-3 1.5 3 1.5-3 1.5 3 1.5-3 1.5 3 1.4-2.2 1.1H1500V0h10.1l2.2 1.1-3 1.5zm47.7 2.6h-22V0h22v6.7z" class="V"/><path d="M1560 20h-22v-6.7h22V20z" class="Y"/><path d="M1560 6.7h-22V0h-8v20h8v-6.7h22z" class="U"/><g class="V"><path d="m1532.2 4.4-.1.4h.1v-.4zm1.2.7h-.3l-.9.8.3.1.9-.9zm1.4-1.3v-.1h-1.6v.1h1.6zm-1.2-2.3c0 .1.2.2.4.2s.4-.1.4-.2-.2-.2-.4-.2-.4.1-.4.2zm-.3 2.8h-1v.4c.3.1.7.1 1 .2v-.6zm-1.9 2.2c.2 0 .5-.1.7-.2l.3-.3-.4-.1-.6.6zm2.1-2.9v-.2l-.1-.1-.2.2.1.2.2-.1zm-1.9.9c.1.1.2.1.3.2v-.3c-.2 0-.3.1-.3.1zm2.8-.1V4h-.8v1h.2a.65.65 0 0 0 .6-.6zm-1.3-1.5-1-1.4a.76.76 0 0 0 .2.4c.1.3.4.8.6 1.2l.2-.2zm-.2.2c.1.1.1.2.2.3l.2-.2-.2-.3-.2.2zm.6 1.9v-.7h-.1l.1.7zm.1-1.9h.8v.1h-.8zm1.9.5v.3m0 .1h.9v-.4h-.9V4z"/><path d="m1536.6 6.5-.6-.6-.4.1.3.3c.2.1.4.2.7.2zm-1.3-2.7h.2v-.1h-.2zm.1 2.1.3-.1-1.3-1.2c0 .1-.1.2-.1.2l1.1 1.1zm-2.9-1.9v-.3h-1.1V4h1.1c-.1 0 0 0 0 0zm.2-.2v-.1h-.2v.1h.2zm2.1-.3-.2-.2-.1.1v.2h.2c.1 0 .1-.1.1-.1zm-1.1-.8h.6l-.1-.1h-.4zm-.1.1h.8v.1h-.8zm.4-.9h-.2v.6h.3v-.7l-.1.1zm-.4 1.5h.8v-.1h-.8v.1zm1-.2.2.2.2-.3-.2-.2c0 .1-.1.2-.2.3zm-1 .3h.8v.1h-.8zm1.5-.5.6-1.2c.1-.1.1-.2.1-.4-.1.1-.6.8-1 1.4l.3.2z"/></g><g fill="#03aa6f"><path d="m22.2 3.1-1 .7-1.7-.3-1-.3-1.4.3-1.1-.4.7-1.4h1.4l1.4-.7c1 .5 1.9 1.2 2.7 2.1zm-7.9-1.4-.4 1-1 .3-1 1.7-1.7 1-2.4.5v1l.7.7v1.4l-1-.7-1-.7-.7-1.8A10.19 10.19 0 0 1 11.2.7l1 .6 2.1.4z"/><path d="m15 11.4-.4 1.7-1.3 1.4v1l-1.4 1v1.8l-1-.4-.7-1.7v-3.4l-1.8-.4-.6-1.4v-1l.6-.7 1.1-1 .7 1.4h2.4l1 1.7zm8.7-6.3c1.9 3.4 1.7 7.5-.5 10.6l-.9-.9v-1.4l-.7-1.4-.7-1.4V9.3l-1-.7-1.4.4L16 7.9l-.3-2.4 1-1h2.1l.7 1 2.1.3 2.1-.7z"/></g><path d="m17.1 3.5 1.4-.3 1 .3 1.7.3 1-.7a9.51 9.51 0 0 1 1.5 2h-.1l-2.1.7-2.1-.3-.7-1h-2l-1 1 .3 2.4 2.4 1 1.4-.4 1 .7v1.4l.7 1.4.7 1.4v1.4l.9.9c-3.3 4.4-9.6 5.3-14 2C5.5 15 4.2 10.3 5.8 6.1l.6 1.8 1 .7 1 .7-.6.7v1l.7 1.4 1.7.3v3.5l.7 1.7 1 .4v-1.7l1.4-1v-1l1.4-1.4.4-1.8h-1.4l-1-1.7h-2.4l-.8-1.4-1 1V7.9l-.7-.7v-1l2.4-.3 1.7-1 1-1.7 1-.3.4-1-2.1-.4-1-.6c2.6-1.1 5.6-1.1 8.2.2l-1.4.7h-1.4L16 3.1l1.1.4z" fill="#86daf1"/><path d="M1170 10h30v10h-30V10z" class="V"/><path d="M1170 0h30v10h-30V0z" class="U"/><defs><path id="B" d="m491.9 2.9.3.7.7.1-.5.5.1.7-.6-.3-.6.3.1-.7-.5-.5.7-.1z"/><path id="C" d="m547 3 .2.4h.3l-.2.3v.4l-.3-.2-.4.2.1-.4-.3-.3h.4z"/><path id="D" d="M642.9 7.7c.1 0 .3.1.3.3s-.1.3-.3.3c-.1 0-.3-.1-.3-.3.1-.2.2-.3.3-.3z"/><path id="E" d="M641.2 9.9v.4c0 .2-.2.3-.4.3-.1 0-.3-.1-.3-.3v-.4h.7"/><path id="F" d="m1434.4 4.5 1 1.4c.1.1 0 .3-.1.4l-.2.2c-.1.1-.3 0-.4-.1l-1-1.4c-.1-.1 0-.3.1-.4l.2-.2c.1 0 .3 0 .4.1z"/></defs></svg>